<svg width="90" height="20" viewBox="0 0 90 20" xmlns="http://www.w3.org/2000/svg"><title>Trainline_Logo</title><path d="M6.116 6.498c-.302 1.358-.88 2.317-2.04 3.142h3.978V6.498H6.116zM0 6.498V9.64h1.258c2.24 0 3.6-1.25 4.128-3.142H0zm5.512-.772c.05-.213.05-.453.05-.72V2.584h-3.02v1.81c0 .534-.1 1.013-.327 1.333h3.297zM2.24 10.413v5.326c0 2.53 1.51 4.047 3.926 4.047 1.233 0 1.888-.32 1.888-.32v-2.93c-.176.054-.63.107-1.032.107-.956 0-1.46-.372-1.46-1.518v-4.713H2.24zm15.503-3.968a7.21 7.21 0 0 0-.78-.053c-1.057 0-2.768.32-3.523 2.05V6.498h-3.247V19.6h3.347v-5.992c0-2.822 1.485-3.7 3.197-3.7.302 0 .63.026 1.006.105V6.445zm1.26 9.587c0 2.05 1.61 3.94 4.252 3.94 1.837 0 3.02-.904 3.65-1.943 0 .505.05 1.224.125 1.57h3.07a15.512 15.512 0 0 1-.15-2.077V11.08c0-2.637-1.46-4.98-5.386-4.98-3.322 0-5.11 2.263-5.31 4.314l2.97.666c.1-1.145.905-2.13 2.365-2.13 1.41 0 2.088.77 2.088 1.703 0 .453-.227.826-.93.933l-3.047.48c-2.062.32-3.7 1.623-3.7 3.967zm4.957 1.305c-1.082 0-1.61-.746-1.61-1.518 0-1.013.68-1.52 1.534-1.652l2.794-.453v.586c0 2.318-1.31 3.037-2.718 3.037zm57.206-5.78c.075-1.197 1.032-2.582 2.768-2.582 1.913 0 2.72 1.278 2.77 2.583h-5.538zm5.864 3.41c-.403 1.172-1.258 1.997-2.82 1.997-1.66 0-3.044-1.252-3.12-2.983h8.86c0-.052.05-.585.05-1.09 0-4.208-2.29-6.79-6.116-6.79-3.17 0-6.09 2.715-6.09 6.896 0 4.42 2.995 7.004 6.392 7.004 3.046 0 5.008-1.89 5.638-4.155l-2.794-.878zm-51.216-8.47h-3.348V19.6h3.348V6.498zm-3.75-4.287c0 1.172.93 2.158 2.064 2.158 1.157 0 2.063-.986 2.063-2.158C36.19.986 35.286 0 34.13 0c-1.133 0-2.064.986-2.064 2.21zM62.29 6.498h-3.347V19.6h3.347V6.498zM58.54 2.21c0 1.172.93 2.158 2.064 2.158 1.158 0 2.064-.986 2.064-2.158 0-1.224-.906-2.21-2.064-2.21-1.133 0-2.064.986-2.064 2.21zm-16.887 9.854c0-1.518.856-2.716 2.315-2.716 1.61 0 2.29 1.145 2.29 2.61V19.6h3.348v-8.255c0-2.876-1.41-5.193-4.48-5.193-1.334 0-2.82.612-3.574 1.97V6.5h-3.247v13.1h3.348v-7.536zm26.45 0c0-1.518.857-2.716 2.316-2.716 1.61 0 2.29 1.145 2.29 2.61V19.6h3.347v-8.255c0-2.876-1.41-5.193-4.48-5.193-1.334 0-2.82.612-3.574 1.97V6.5h-3.246v13.1h3.347v-7.536zM57.08 16.618c-.226.026-.402.026-.58.026-.83 0-1.433-.32-1.433-1.464V.32H51.77v15.446c0 2.53 1.51 4.02 3.926 4.02a5.82 5.82 0 0 0 1.385-.16v-3.01z" fill="#FFF" fill-rule="evenodd"/></svg>